<svg width="2170" height="979" viewBox="0 0 2170 979" fill="none" xmlns="http://www.w3.org/2000/svg">
<path d="M1 18.7722V979" stroke="#4C52E2" stroke-opacity="0.15"/>
<path d="M91.3335 18.7722V979" stroke="#4C52E2" stroke-opacity="0.15"/>
<path d="M181.667 18.7722V979" stroke="#4C52E2" stroke-opacity="0.15"/>
<path d="M272 18.7722V979" stroke="#4C52E2" stroke-opacity="0.15"/>
<path d="M362.333 18.7722V979" stroke="#4C52E2" stroke-opacity="0.15"/>
<path d="M452.667 18.7722V979" stroke="#4C52E2" stroke-opacity="0.15"/>
<path d="M543 18.7722V979" stroke="#4C52E2" stroke-opacity="0.15"/>
<path d="M633.333 18.7722V979" stroke="#4C52E2" stroke-opacity="0.15"/>
<path d="M723.667 18.7722V979" stroke="#4C52E2" stroke-opacity="0.15"/>
<path d="M814 18.7722V979" stroke="#4C52E2" stroke-opacity="0.15"/>
<path d="M904.333 18.7722V979" stroke="#4C52E2" stroke-opacity="0.15"/>
<path d="M994.667 18.7722V979" stroke="#4C52E2" stroke-opacity="0.15"/>
<path d="M1085 18.7722V979" stroke="#4C52E2" stroke-opacity="0.15"/>
<path d="M1175.33 18.7722V979" stroke="#4C52E2" stroke-opacity="0.15"/>
<path d="M1265.67 18.7722V979" stroke="#4C52E2" stroke-opacity="0.15"/>
<path d="M1356 18.7722V979" stroke="#4C52E2" stroke-opacity="0.15"/>
<path d="M1446.33 18.7722V979" stroke="#4C52E2" stroke-opacity="0.15"/>
<path d="M1536.67 18.7722V979" stroke="#4C52E2" stroke-opacity="0.15"/>
<path d="M1627 18.7722V979" stroke="#4C52E2" stroke-opacity="0.15"/>
<path d="M1723.28 0V960.228" stroke="#4C52E2" stroke-opacity="0.15"/>
<path d="M1807.67 18.7722V979" stroke="#4C52E2" stroke-opacity="0.15"/>
<path d="M1898 18.7722V979" stroke="#4C52E2" stroke-opacity="0.15"/>
<path d="M1988.33 18.7722V979" stroke="#4C52E2" stroke-opacity="0.15"/>
<path d="M2078.67 18.7722V979" stroke="#4C52E2" stroke-opacity="0.15"/>
<path d="M2169 18.7722V979" stroke="#4C52E2" stroke-opacity="0.15"/>
</svg>
