<svg width="30" height="30" viewBox="0 0 30 30" fill="none" xmlns="http://www.w3.org/2000/svg">
<path fill-rule="evenodd" clip-rule="evenodd" d="M15.4557 0.448966C15.4557 8.73687 8.73698 15.4556 0.449068 15.4556C0.298853 15.4556 0.149154 15.4533 0 15.449C0.000129433 15.4534 0.000260764 15.4578 0.000393993 15.4622C0.149417 15.4578 0.298985 15.4556 0.449068 15.4556C8.58236 15.4556 15.2044 21.9259 15.4487 30C15.4533 29.9999 15.458 29.9997 15.4627 29.9996C15.7025 22.0794 22.0794 15.7025 29.9996 15.4626L30 15.4486C21.926 15.2043 15.4557 8.58222 15.4557 0.448966C15.4557 0.298917 15.4579 0.149383 15.4623 0.000393392L15.4491 0C15.4534 0.14912 15.4557 0.298785 15.4557 0.448966Z" fill="#1CB0F6"/>
</svg>
