<svg width="70" height="100" viewBox="0 0 70 100" fill="none" xmlns="http://www.w3.org/2000/svg">
<path d="M2.45657 96.8775C1.62825 96.8907 0.967467 97.5729 0.980669 98.4012C0.993872 99.2295 1.67606 99.8903 2.50438 99.8771L2.45657 96.8775ZM44.3141 66.4686L45.7969 66.6947L44.3141 66.4686ZM58.1295 0.880384C57.4423 0.417621 56.5102 0.599505 56.0474 1.28663L48.5062 12.484C48.0435 13.1711 48.2253 14.1033 48.9125 14.566C49.5996 15.0288 50.5318 14.8469 50.9945 14.1598L57.6978 4.2066L67.651 10.9099C68.3381 11.3726 69.2703 11.1907 69.7331 10.5036C70.1958 9.81649 70.0139 8.88432 69.3268 8.42156L58.1295 0.880384ZM2.50438 99.8771C8.88141 99.7755 18.6435 98.0168 27.3413 93.0469C36.0837 88.0515 43.8034 79.7699 45.7969 66.6947L42.8312 66.2425C41.0048 78.2217 33.9841 85.796 25.8529 90.4421C17.6771 95.1138 8.43241 96.7822 2.45657 96.8775L2.50438 99.8771ZM45.7969 66.6947C47.0302 58.606 45.754 52.5311 43.0222 48.2639C40.2882 43.9933 36.1932 41.6894 32.1134 40.9885C28.0728 40.2943 23.931 41.1566 21.0863 43.3757C19.6505 44.4957 18.5342 45.9743 17.9792 47.7685C17.4227 49.5679 17.4611 51.5865 18.1775 53.7301L21.0228 52.7793C20.4803 51.1559 20.4962 49.7835 20.8452 48.655C21.1958 47.5214 21.9133 46.5354 22.9315 45.7411C24.9946 44.1318 28.2413 43.3672 31.6055 43.9452C34.9305 44.5165 38.2566 46.3839 40.4956 49.8814C42.7368 53.3822 43.9855 58.6721 42.8312 66.2425L45.7969 66.6947ZM18.1775 53.7301C19.6576 58.159 23.9988 61.2067 29.095 62.3192C34.2376 63.4418 40.3925 62.672 45.9291 59.2309C57.1067 52.2836 65.2171 34.9118 58.7638 1.83728L55.8193 2.41179C62.1743 34.9819 53.9567 50.7092 44.3455 56.6829C39.4876 59.7022 34.1329 60.3483 29.7349 59.3882C25.2906 58.418 22.0605 55.8844 21.0228 52.7793L18.1775 53.7301Z" fill="#1A21BC"/>
</svg>
