<svg width="124" height="116" viewBox="0 0 124 116" fill="none" xmlns="http://www.w3.org/2000/svg">
<path d="M3.89171 1.99527C3.92618 1.16756 3.28313 0.468627 2.45542 0.434158C1.62772 0.399687 0.92878 1.04274 0.894309 1.87045L3.89171 1.99527ZM40.2649 65.7284L39.6618 67.1018L40.2649 65.7284ZM122.761 106.736C123.4 106.21 123.492 105.264 122.965 104.625L114.386 94.2017C113.859 93.5621 112.914 93.4704 112.274 93.9969C111.635 94.5234 111.543 95.4687 112.069 96.1083L119.696 105.373L110.431 113C109.791 113.526 109.7 114.471 110.226 115.111C110.753 115.751 111.698 115.842 112.338 115.316L122.761 106.736ZM0.894309 1.87045C0.563945 9.80327 2.10787 22.4929 7.78165 34.9966C13.4673 47.5264 23.3321 59.9307 39.6618 67.1018L40.868 64.355C25.3571 57.5434 15.9645 45.7695 10.5136 33.7569C5.05082 21.7183 3.57911 9.50151 3.89171 1.99527L0.894309 1.87045ZM39.6618 67.1018C49.7888 71.5491 57.5659 72.205 63.21 70.3867C68.9218 68.5465 72.1983 64.2518 73.3915 59.4391C74.5718 54.6783 73.7328 49.3738 71.2513 45.2767C68.7482 41.1439 64.5027 38.1531 58.9408 38.3545L59.0494 41.3525C63.3279 41.1976 66.6364 43.4479 68.6853 46.8308C70.7558 50.2495 71.4669 54.7354 70.4796 58.7172C69.5053 62.647 66.8966 66.0471 62.2901 67.5312C57.6158 69.0371 50.6413 68.6469 40.868 64.355L39.6618 67.1018ZM58.9408 38.3545C53.1847 38.5629 48.9095 42.8752 47.1069 48.8284C45.2996 54.7967 45.8653 62.6086 49.7703 70.5502C57.6098 86.4937 78.822 102.916 121.662 107.071L121.952 104.085C79.7139 99.9881 59.6796 83.9041 52.4625 69.2265C48.8391 61.8576 48.424 54.8302 49.9781 49.6978C51.5368 44.5502 54.9651 41.5004 59.0494 41.3525L58.9408 38.3545Z" fill="#1A21BC"/>
</svg>
